<mxfile host="app.diagrams.net" agent="Mozilla/5.0 (Windows NT 10.0; Win64; x64) AppleWebKit/537.36 (KHTML, like Gecko) Chrome/134.0.0.0 Safari/537.36 Edg/134.0.0.0" version="26.1.1">
  <diagram name="Page-1" id="9TuByx7-vyfJ2c3Vqewd">
    <mxGraphModel dx="1158" dy="628" grid="1" gridSize="10" guides="1" tooltips="1" connect="1" arrows="1" fold="1" page="1" pageScale="1" pageWidth="827" pageHeight="1169" math="0" shadow="0">
      <root>
        <mxCell id="0" />
        <mxCell id="1" parent="0" />
        <mxCell id="y8Js765iOle-kLW56YUG-2" value="Sports Purchase Order System" style="swimlane;whiteSpace=wrap;html=1;fillColor=#d5e8d4;strokeColor=#82b366;" vertex="1" parent="1">
          <mxGeometry x="300" y="60" width="530" height="510" as="geometry" />
        </mxCell>
        <mxCell id="y8Js765iOle-kLW56YUG-4" value="Create Purchase Order" style="ellipse;whiteSpace=wrap;html=1;fillColor=#d5e8d4;strokeColor=#82b366;" vertex="1" parent="y8Js765iOle-kLW56YUG-2">
          <mxGeometry x="53" y="95" width="117" height="50" as="geometry" />
        </mxCell>
        <mxCell id="y8Js765iOle-kLW56YUG-8" value="Add Items to PO to order" style="ellipse;whiteSpace=wrap;html=1;fillColor=#d5e8d4;strokeColor=#82b366;" vertex="1" parent="y8Js765iOle-kLW56YUG-2">
          <mxGeometry x="170" y="150" width="117" height="50" as="geometry" />
        </mxCell>
        <mxCell id="y8Js765iOle-kLW56YUG-9" value="" style="endArrow=classic;html=1;rounded=0;entryX=0;entryY=0;entryDx=0;entryDy=0;" edge="1" parent="y8Js765iOle-kLW56YUG-2" source="y8Js765iOle-kLW56YUG-4" target="y8Js765iOle-kLW56YUG-8">
          <mxGeometry width="50" height="50" relative="1" as="geometry">
            <mxPoint x="150" y="210" as="sourcePoint" />
            <mxPoint x="200" y="160" as="targetPoint" />
          </mxGeometry>
        </mxCell>
        <mxCell id="y8Js765iOle-kLW56YUG-11" value="Edit/Update Purchase Order" style="ellipse;whiteSpace=wrap;html=1;fillColor=#d5e8d4;strokeColor=#82b366;" vertex="1" parent="y8Js765iOle-kLW56YUG-2">
          <mxGeometry x="287" y="200" width="117" height="50" as="geometry" />
        </mxCell>
        <mxCell id="y8Js765iOle-kLW56YUG-12" value="" style="endArrow=classic;html=1;rounded=0;exitX=1;exitY=1;exitDx=0;exitDy=0;" edge="1" parent="y8Js765iOle-kLW56YUG-2" source="y8Js765iOle-kLW56YUG-8" target="y8Js765iOle-kLW56YUG-11">
          <mxGeometry width="50" height="50" relative="1" as="geometry">
            <mxPoint x="220" y="230" as="sourcePoint" />
            <mxPoint x="270" y="180" as="targetPoint" />
          </mxGeometry>
        </mxCell>
        <mxCell id="y8Js765iOle-kLW56YUG-17" value="Reviews Purchase Order" style="ellipse;whiteSpace=wrap;html=1;fillColor=#d5e8d4;strokeColor=#82b366;" vertex="1" parent="y8Js765iOle-kLW56YUG-2">
          <mxGeometry x="390" y="95" width="117" height="50" as="geometry" />
        </mxCell>
        <mxCell id="y8Js765iOle-kLW56YUG-19" value="" style="endArrow=classic;html=1;rounded=0;exitX=0;exitY=0.5;exitDx=0;exitDy=0;entryX=1;entryY=0.5;entryDx=0;entryDy=0;" edge="1" parent="y8Js765iOle-kLW56YUG-2" source="y8Js765iOle-kLW56YUG-17" target="y8Js765iOle-kLW56YUG-4">
          <mxGeometry relative="1" as="geometry">
            <mxPoint x="190" y="120" as="sourcePoint" />
            <mxPoint x="290" y="120" as="targetPoint" />
          </mxGeometry>
        </mxCell>
        <mxCell id="y8Js765iOle-kLW56YUG-20" value="Approve/Reject Purchase Order" style="edgeLabel;resizable=0;html=1;;align=center;verticalAlign=middle;" connectable="0" vertex="1" parent="y8Js765iOle-kLW56YUG-19">
          <mxGeometry relative="1" as="geometry" />
        </mxCell>
        <mxCell id="y8Js765iOle-kLW56YUG-53" value="Manage Sport Inventory/Suppliers" style="ellipse;whiteSpace=wrap;html=1;fillColor=#d5e8d4;strokeColor=#82b366;" vertex="1" parent="y8Js765iOle-kLW56YUG-2">
          <mxGeometry x="53" y="215" width="117" height="50" as="geometry" />
        </mxCell>
        <mxCell id="y8Js765iOle-kLW56YUG-54" value="&lt;div&gt;Inventory Manager&lt;/div&gt;&lt;div&gt;&lt;br&gt;&lt;/div&gt;" style="shape=umlActor;verticalLabelPosition=bottom;verticalAlign=top;html=1;outlineConnect=0;" vertex="1" parent="y8Js765iOle-kLW56YUG-2">
          <mxGeometry x="-70" y="210" width="30" height="60" as="geometry" />
        </mxCell>
        <mxCell id="y8Js765iOle-kLW56YUG-55" value="" style="endArrow=classic;html=1;rounded=0;entryX=0;entryY=0.5;entryDx=0;entryDy=0;" edge="1" parent="y8Js765iOle-kLW56YUG-2" source="y8Js765iOle-kLW56YUG-54" target="y8Js765iOle-kLW56YUG-53">
          <mxGeometry width="50" height="50" relative="1" as="geometry">
            <mxPoint x="-140" y="270" as="sourcePoint" />
            <mxPoint x="-90" y="220" as="targetPoint" />
          </mxGeometry>
        </mxCell>
        <mxCell id="y8Js765iOle-kLW56YUG-3" value="Buyer&lt;div&gt;&lt;br&gt;&lt;/div&gt;" style="shape=umlActor;verticalLabelPosition=bottom;verticalAlign=top;html=1;outlineConnect=0;" vertex="1" parent="1">
          <mxGeometry x="250" y="150" width="30" height="60" as="geometry" />
        </mxCell>
        <mxCell id="y8Js765iOle-kLW56YUG-5" value="" style="endArrow=classic;html=1;rounded=0;entryX=0;entryY=0.5;entryDx=0;entryDy=0;" edge="1" parent="1" source="y8Js765iOle-kLW56YUG-3" target="y8Js765iOle-kLW56YUG-4">
          <mxGeometry width="50" height="50" relative="1" as="geometry">
            <mxPoint x="310" y="210" as="sourcePoint" />
            <mxPoint x="360" y="160" as="targetPoint" />
          </mxGeometry>
        </mxCell>
        <mxCell id="y8Js765iOle-kLW56YUG-13" value="Approver&lt;div&gt;&lt;br&gt;&lt;/div&gt;" style="shape=umlActor;verticalLabelPosition=bottom;verticalAlign=top;html=1;outlineConnect=0;" vertex="1" parent="1">
          <mxGeometry x="850" y="150" width="30" height="60" as="geometry" />
        </mxCell>
        <mxCell id="y8Js765iOle-kLW56YUG-18" value="" style="endArrow=classic;html=1;rounded=0;entryX=1;entryY=0.5;entryDx=0;entryDy=0;" edge="1" parent="1" source="y8Js765iOle-kLW56YUG-13" target="y8Js765iOle-kLW56YUG-17">
          <mxGeometry width="50" height="50" relative="1" as="geometry">
            <mxPoint x="510" y="210" as="sourcePoint" />
            <mxPoint x="560" y="160" as="targetPoint" />
          </mxGeometry>
        </mxCell>
        <mxCell id="y8Js765iOle-kLW56YUG-34" value="Sports Purchase Order System" style="swimlane;whiteSpace=wrap;html=1;fillColor=#d5e8d4;strokeColor=#82b366;" vertex="1" parent="1">
          <mxGeometry x="1130" y="60" width="340" height="210" as="geometry" />
        </mxCell>
        <mxCell id="y8Js765iOle-kLW56YUG-35" value="Assign Roles/ Permissions" style="ellipse;whiteSpace=wrap;html=1;fillColor=#d5e8d4;strokeColor=#82b366;" vertex="1" parent="y8Js765iOle-kLW56YUG-34">
          <mxGeometry x="53" y="95" width="117" height="50" as="geometry" />
        </mxCell>
        <mxCell id="y8Js765iOle-kLW56YUG-43" value="&lt;div&gt;Admin&lt;/div&gt;" style="shape=umlActor;verticalLabelPosition=bottom;verticalAlign=top;html=1;outlineConnect=0;" vertex="1" parent="1">
          <mxGeometry x="1070" y="150" width="30" height="60" as="geometry" />
        </mxCell>
        <mxCell id="y8Js765iOle-kLW56YUG-44" value="" style="endArrow=classic;html=1;rounded=0;entryX=0;entryY=0.5;entryDx=0;entryDy=0;" edge="1" parent="1" source="y8Js765iOle-kLW56YUG-43" target="y8Js765iOle-kLW56YUG-35">
          <mxGeometry width="50" height="50" relative="1" as="geometry">
            <mxPoint x="1000" y="210" as="sourcePoint" />
            <mxPoint x="1050" y="160" as="targetPoint" />
          </mxGeometry>
        </mxCell>
        <mxCell id="y8Js765iOle-kLW56YUG-56" value="Assign Roles/ Permissions" style="ellipse;whiteSpace=wrap;html=1;fillColor=#d5e8d4;strokeColor=#82b366;" vertex="1" parent="1">
          <mxGeometry x="363" y="375" width="117" height="50" as="geometry" />
        </mxCell>
        <mxCell id="y8Js765iOle-kLW56YUG-57" value="&lt;div&gt;Admin&lt;/div&gt;" style="shape=umlActor;verticalLabelPosition=bottom;verticalAlign=top;html=1;outlineConnect=0;" vertex="1" parent="1">
          <mxGeometry x="250" y="370" width="30" height="60" as="geometry" />
        </mxCell>
        <mxCell id="y8Js765iOle-kLW56YUG-58" value="" style="endArrow=classic;html=1;rounded=0;entryX=0;entryY=0.5;entryDx=0;entryDy=0;" edge="1" parent="1" source="y8Js765iOle-kLW56YUG-57" target="y8Js765iOle-kLW56YUG-56">
          <mxGeometry width="50" height="50" relative="1" as="geometry">
            <mxPoint x="180" y="430" as="sourcePoint" />
            <mxPoint x="230" y="380" as="targetPoint" />
          </mxGeometry>
        </mxCell>
      </root>
    </mxGraphModel>
  </diagram>
</mxfile>
